<svg width="41" height="41" viewBox="0 0 41 41" fill="none" xmlns="http://www.w3.org/2000/svg">
<path d="M23.0797 23.2001L30.0454 11.6615C30.3323 11.1492 29.6294 10.4298 29.1083 10.7096L17.402 17.5892L10.615 29.3493C10.5675 29.482 10.5592 29.6255 10.5911 29.7628C10.6231 29.9 10.6938 30.0252 10.795 30.1232C10.8962 30.2213 11.0235 30.2881 11.1617 30.3158C11.2999 30.3434 11.4431 30.3306 11.5742 30.2789L23.0797 23.2001ZM18.6178 18.7733L21.9642 22.0934L13.7176 27.1815L18.6178 18.7733Z" fill="#BFBFBF"/>
<path d="M37.8562 20.0086C37.8424 16.4925 36.7862 13.0595 34.8212 10.1437C32.8563 7.22788 30.0708 4.96022 26.817 3.62749C23.5633 2.29475 19.9874 1.95679 16.5416 2.65634C13.0958 3.3559 9.93478 5.06155 7.45833 7.5576C4.98189 10.0537 3.30123 13.228 2.62887 16.6792C1.95652 20.1305 2.32267 23.7036 3.68103 26.9467C5.03939 30.1898 7.32894 32.9573 10.2602 34.8992C13.1914 36.8411 16.6326 37.8702 20.1487 37.8564C24.8636 37.8378 29.3781 35.9469 32.6989 32.5998C36.0197 29.2527 37.8748 24.7235 37.8562 20.0086ZM4.5831 21.2509L7.27197 21.2403L7.26321 19.0181L4.57434 19.0287C4.83007 15.301 6.41904 11.7899 9.05068 9.13744C11.6823 6.48496 15.1808 4.86835 18.9064 4.58322L18.917 7.27208L21.1392 7.26332L21.1286 4.57445C24.8563 4.83019 28.3674 6.41916 31.0199 9.0508C33.6724 11.6824 35.289 15.1809 35.5741 18.9065L32.8852 18.9171L32.894 21.1393L35.5829 21.1287C35.3271 24.8564 33.7382 28.3675 31.1065 31.02C28.4749 33.6725 24.9764 35.2891 21.2508 35.5742L21.2402 32.8853L19.018 32.8941L19.0286 35.583C15.3009 35.3272 11.7898 33.7383 9.13732 31.1066C6.48484 28.475 4.86823 24.9765 4.5831 21.2509Z" fill="#BFBFBF"/>
</svg>
