<svg width="20" height="21" viewBox="0 0 20 21" fill="none" xmlns="http://www.w3.org/2000/svg">
<path d="M1 10.5C1 11.6819 1.23279 12.8522 1.68508 13.9442C2.13738 15.0361 2.80031 16.0282 3.63604 16.864C4.47177 17.6997 5.46392 18.3626 6.55585 18.8149C7.64778 19.2672 8.8181 19.5 10 19.5C11.1819 19.5 12.3522 19.2672 13.4442 18.8149C14.5361 18.3626 15.5282 17.6997 16.364 16.864C17.1997 16.0282 17.8626 15.0361 18.3149 13.9442C18.7672 12.8522 19 11.6819 19 10.5C19 8.11305 18.0518 5.82387 16.364 4.13604C14.6761 2.44821 12.3869 1.5 10 1.5C7.61305 1.5 5.32387 2.44821 3.63604 4.13604C1.94821 5.82387 1 8.11305 1 10.5Z" stroke="#A4A4A4" stroke-width="2" stroke-linecap="round" stroke-linejoin="round"/>
<path d="M10 5.5V10.5L13 13.5" stroke="#A4A4A4" stroke-width="2" stroke-linecap="round" stroke-linejoin="round"/>
</svg>
